# xmcd
#
# Track frame offsets: 
#        150
#        24147
#        63975
#        80942
#        123305
#        166182
#        180622
#        205230
#
# Disc length: 3197 seconds
#
# Revision: 0
# Processed by: cddbd v1.5.2PL0 Copyright (c) Steve Scherf et al.
# Submitted via: ExactAudioCopy v1.0b3
#
DISCID=620c7b08
DTITLE=Sivuca - Live At The Village Gate
DYEAR=1973
DGENRE=Latin-Br-Forro
TTITLE0=Adeus Maria Fulo
TTITLE1=Berimbau
TTITLE2=It Might Have Been
TTITLE3=Rancho Fundo
TTITLE4=Ain't No Sunshine
TTITLE5=Marina
TTITLE6=Coisa No.10
TTITLE7=Batucada
EXTD=
EXTT0=
EXTT1=
EXTT2=
EXTT3=
EXTT4=
EXTT5=
EXTT6=
EXTT7=
PLAYORDER=
